<svg width="693" height="495" fill="none" xmlns="http://www.w3.org/2000/svg"><g filter="url(#a)"><rect x="7" y="7" width="642.52" height="401.667" rx="13.386" fill="#fff"/></g><g filter="url(#b)"><path d="M7 20.386C7 12.993 12.993 7 20.386 7h615.748c7.393 0 13.386 5.993 13.386 13.386v29.458H7V20.386Z" fill="#00252E"/></g><rect x="55.189" y="20.389" width="133.858" height="16.067" rx="3.346" fill="#E1E8EE"/><g fill="#D8D8D8"><rect x="585.268" y="21.728" width="21.417" height="2.678" rx="1.339"/><rect x="585.268" y="27.083" width="21.417" height="2.678" rx="1.339"/><rect x="585.268" y="32.439" width="21.417" height="2.678" rx="1.339"/></g><ellipse cx="87.315" cy="131.517" rx="32.126" ry="32.133" fill="url(#c)"/><g fill="#E1E8EE"><rect x="156.921" y="107.417" width="76.969" height="10.711" rx="2.008"/><rect x="156.921" y="128.839" width="267.717" height="5.356" rx="2.008"/><rect x="156.921" y="139.55" width="245.407" height="5.356" rx="2.008"/><rect x="156.921" y="150.261" width="223.097" height="5.356" rx="2.008"/></g><g fill="#A7B9C8"><ellipse cx="464.795" cy="131.517" rx="8.031" ry="8.033"/><ellipse cx="507.63" cy="131.517" rx="8.031" ry="8.033"/><ellipse cx="486.212" cy="131.517" rx="8.031" ry="8.033"/><ellipse cx="529.047" cy="131.517" rx="8.031" ry="8.033"/><ellipse cx="550.464" cy="131.517" rx="8.031" ry="8.033"/></g><ellipse cx="85.307" cy="220.553" rx="30.118" ry="30.125" fill="url(#d)"/><g fill="#E1E8EE"><rect x="154.913" y="196.453" width="76.969" height="10.711" rx="2.008"/><rect x="154.913" y="217.875" width="267.717" height="5.356" rx="2.008"/><rect x="154.913" y="228.586" width="245.407" height="5.356" rx="2.008"/><rect x="154.913" y="239.297" width="223.097" height="5.356" rx="2.008"/></g><g fill="#A7B9C8"><ellipse cx="462.787" cy="220.553" rx="8.031" ry="8.033"/><ellipse cx="505.622" cy="220.553" rx="8.031" ry="8.033"/><ellipse cx="484.205" cy="220.553" rx="8.031" ry="8.033"/></g><ellipse cx="85.307" cy="316.283" rx="30.118" ry="30.125" fill="url(#e)"/><g fill="#E1E8EE"><rect x="154.913" y="292.183" width="76.969" height="10.711" rx="2.008"/><rect x="154.913" y="313.606" width="267.717" height="5.356" rx="2.008"/><rect x="154.913" y="324.317" width="245.407" height="5.356" rx="2.008"/><rect x="154.913" y="335.028" width="223.097" height="5.356" rx="2.008"/></g><g fill="#A7B9C8"><ellipse cx="462.787" cy="316.283" rx="8.031" ry="8.033"/><ellipse cx="505.622" cy="316.283" rx="8.031" ry="8.033"/><ellipse cx="484.205" cy="316.283" rx="8.031" ry="8.033"/><ellipse cx="527.039" cy="316.283" rx="8.031" ry="8.033"/></g><g filter="url(#f)"><path fill-rule="evenodd" clip-rule="evenodd" d="M472.827 157.667c0-6.309 5.114-11.423 11.422-11.423h191.328c6.309 0 11.423 5.115 11.423 11.423v319.91c0 6.309-5.114 11.423-11.423 11.423H484.249c-6.308 0-11.422-5.114-11.422-11.423v-319.91Z" fill="#fff"/></g><g filter="url(#g)"><path fill-rule="evenodd" clip-rule="evenodd" d="M472.827 157.667c0-6.308 5.114-11.423 11.422-11.423h191.328c6.309 0 11.423 5.115 11.423 11.423v25.138H472.827v-25.138Z" fill="#00252E"/></g><rect x="494.333" y="158.812" width="69.606" height="13.71" rx="2.856" fill="#E1E8EE"/><g fill="#D8D8D8"><rect x="645.879" y="159.955" width="18.276" height="2.285" rx="1.142"/><rect x="645.879" y="164.525" width="18.276" height="2.285" rx="1.142"/><rect x="645.879" y="169.095" width="18.276" height="2.285" rx="1.142"/></g><ellipse cx="504.283" cy="228.586" rx="10.039" ry="10.042" fill="url(#h)"/><g fill="#E1E8EE"><rect x="525.031" y="220.553" width="38.484" height="3.57" rx=".615"/><rect x="525.031" y="227.694" width="133.858" height="1.785" rx=".615"/><rect x="525.031" y="231.264" width="122.703" height="1.785" rx=".615"/><rect x="525.031" y="234.834" width="111.549" height="1.785" rx=".615"/></g><ellipse cx="504.283" cy="320.969" rx="10.039" ry="10.042" fill="url(#i)"/><g fill="#E1E8EE"><rect x="525.031" y="312.936" width="38.484" height="3.57" rx=".615"/><rect x="525.031" y="320.077" width="133.858" height="1.785" rx=".615"/><rect x="525.031" y="323.647" width="122.703" height="1.785" rx=".615"/><rect x="525.031" y="327.218" width="111.549" height="1.785" rx=".615"/></g><g fill="#E1E8EE"><rect x="525.031" y="251.347" width="38.484" height="3.57" rx=".615"/><rect x="525.031" y="258.488" width="133.858" height="1.785" rx=".615"/><rect x="525.031" y="262.058" width="122.703" height="1.785" rx=".615"/><rect x="525.031" y="265.629" width="111.549" height="1.785" rx=".615"/></g><ellipse cx="504.283" cy="259.381" rx="10.039" ry="10.042" fill="url(#j)"/><g fill="#E1E8EE"><rect x="525.031" y="343.731" width="38.484" height="3.57" rx=".615"/><rect x="525.031" y="350.871" width="133.858" height="1.785" rx=".615"/><rect x="525.031" y="354.442" width="122.703" height="1.785" rx=".615"/><rect x="525.031" y="358.012" width="111.549" height="1.785" rx=".615"/></g><ellipse cx="504.283" cy="351.764" rx="10.039" ry="10.042" fill="url(#k)"/><g fill="#E1E8EE"><rect x="525.031" y="282.142" width="38.484" height="3.57" rx=".615"/><rect x="525.031" y="289.282" width="133.858" height="1.785" rx=".615"/><rect x="525.031" y="292.853" width="122.703" height="1.785" rx=".615"/><rect x="525.031" y="296.423" width="111.549" height="1.785" rx=".615"/></g><ellipse cx="504.283" cy="290.175" rx="10.039" ry="10.042" fill="url(#l)"/><g fill="#E1E8EE"><rect x="525.031" y="374.525" width="38.484" height="3.57" rx=".615"/><rect x="525.031" y="381.666" width="133.858" height="1.785" rx=".615"/><rect x="525.031" y="385.236" width="122.703" height="1.785" rx=".615"/><rect x="525.031" y="388.806" width="111.549" height="1.785" rx=".615"/></g><ellipse cx="504.283" cy="382.558" rx="10.039" ry="10.042" fill="url(#m)"/><ellipse cx="504.283" cy="413.353" rx="10.039" ry="10.042" fill="url(#n)"/><g fill="#E1E8EE"><rect x="525.031" y="405.319" width="38.484" height="3.57" rx=".615"/><rect x="525.031" y="412.46" width="133.858" height="1.785" rx=".615"/><rect x="525.031" y="416.031" width="122.703" height="1.785" rx=".615"/><rect x="525.031" y="419.601" width="111.549" height="1.785" rx=".615"/></g><g fill="#E1E8EE"><rect x="525.031" y="436.114" width="38.484" height="3.57" rx=".615"/><rect x="525.031" y="443.255" width="133.858" height="1.785" rx=".615"/><rect x="525.031" y="446.825" width="122.703" height="1.785" rx=".615"/><rect x="525.031" y="450.395" width="111.549" height="1.785" rx=".615"/></g><ellipse cx="504.283" cy="444.147" rx="10.039" ry="10.042" fill="url(#o)"/><defs><linearGradient id="c" x1="19.161" y1="104.673" x2="58.489" y2="195.775" gradientUnits="userSpaceOnUse"><stop stop-color="#FAD961"/><stop offset="1" stop-color="#FF52C1"/></linearGradient><linearGradient id="d" x1="55.189" y1="190.428" x2="55.189" y2="250.678" gradientUnits="userSpaceOnUse"><stop stop-color="#00C7FA"/><stop offset="1" stop-color="#007DFA"/></linearGradient><linearGradient id="e" x1="39.137" y1="304.603" x2="76.031" y2="371.62" gradientUnits="userSpaceOnUse"><stop stop-color="#FF52C1"/><stop offset="1" stop-color="#9952FF"/></linearGradient><linearGradient id="h" x1="482.985" y1="220.197" x2="495.275" y2="248.667" gradientUnits="userSpaceOnUse"><stop stop-color="#FAD961"/><stop offset="1" stop-color="#FF52C1"/></linearGradient><linearGradient id="i" x1="482.985" y1="312.581" x2="495.275" y2="341.05" gradientUnits="userSpaceOnUse"><stop stop-color="#FAD961"/><stop offset="1" stop-color="#FF52C1"/></linearGradient><linearGradient id="j" x1="494.244" y1="249.339" x2="494.244" y2="269.422" gradientUnits="userSpaceOnUse"><stop stop-color="#00C7FA"/><stop offset="1" stop-color="#007DFA"/></linearGradient><linearGradient id="k" x1="494.244" y1="341.722" x2="494.244" y2="361.806" gradientUnits="userSpaceOnUse"><stop stop-color="#00C7FA"/><stop offset="1" stop-color="#007DFA"/></linearGradient><linearGradient id="l" x1="488.893" y1="286.282" x2="501.191" y2="308.621" gradientUnits="userSpaceOnUse"><stop stop-color="#FF52C1"/><stop offset="1" stop-color="#9952FF"/></linearGradient><linearGradient id="m" x1="488.893" y1="378.665" x2="501.191" y2="401.004" gradientUnits="userSpaceOnUse"><stop stop-color="#FF52C1"/><stop offset="1" stop-color="#9952FF"/></linearGradient><linearGradient id="n" x1="482.985" y1="404.964" x2="495.275" y2="433.434" gradientUnits="userSpaceOnUse"><stop stop-color="#FAD961"/><stop offset="1" stop-color="#FF52C1"/></linearGradient><linearGradient id="o" x1="494.244" y1="434.106" x2="494.244" y2="454.189" gradientUnits="userSpaceOnUse"><stop stop-color="#00C7FA"/><stop offset="1" stop-color="#007DFA"/></linearGradient><filter id="a" x="0" y="0" width="656.52" height="415.667" filterUnits="userSpaceOnUse" color-interpolation-filters="sRGB"><feFlood flood-opacity="0" result="BackgroundImageFix"/><feColorMatrix in="SourceAlpha" values="0 0 0 0 0 0 0 0 0 0 0 0 0 0 0 0 0 0 127 0" result="hardAlpha"/><feOffset/><feGaussianBlur stdDeviation="3.5"/><feColorMatrix values="0 0 0 0 0 0 0 0 0 0.145098 0 0 0 0 0.180392 0 0 0 0.181839 0"/><feBlend in2="BackgroundImageFix" result="effect1_dropShadow_70_59"/><feBlend in="SourceGraphic" in2="effect1_dropShadow_70_59" result="shape"/></filter><filter id="b" x="0" y="0" width="656.52" height="56.844" filterUnits="userSpaceOnUse" color-interpolation-filters="sRGB"><feFlood flood-opacity="0" result="BackgroundImageFix"/><feColorMatrix in="SourceAlpha" values="0 0 0 0 0 0 0 0 0 0 0 0 0 0 0 0 0 0 127 0" result="hardAlpha"/><feOffset/><feGaussianBlur stdDeviation="3.5"/><feColorMatrix values="0 0 0 0 0 0 0 0 0 0.145098 0 0 0 0 0.180392 0 0 0 0.181839 0"/><feBlend in2="BackgroundImageFix" result="effect1_dropShadow_70_59"/><feBlend in="SourceGraphic" in2="effect1_dropShadow_70_59" result="shape"/></filter><filter id="f" x="466.827" y="140.244" width="226.173" height="354.756" filterUnits="userSpaceOnUse" color-interpolation-filters="sRGB"><feFlood flood-opacity="0" result="BackgroundImageFix"/><feColorMatrix in="SourceAlpha" values="0 0 0 0 0 0 0 0 0 0 0 0 0 0 0 0 0 0 127 0" result="hardAlpha"/><feOffset/><feGaussianBlur stdDeviation="3"/><feColorMatrix values="0 0 0 0 0 0 0 0 0 0.145098 0 0 0 0 0.180392 0 0 0 0.181839 0"/><feBlend in2="BackgroundImageFix" result="effect1_dropShadow_70_59"/><feBlend in="SourceGraphic" in2="effect1_dropShadow_70_59" result="shape"/></filter><filter id="g" x="466.827" y="140.244" width="226.173" height="48.561" filterUnits="userSpaceOnUse" color-interpolation-filters="sRGB"><feFlood flood-opacity="0" result="BackgroundImageFix"/><feColorMatrix in="SourceAlpha" values="0 0 0 0 0 0 0 0 0 0 0 0 0 0 0 0 0 0 127 0" result="hardAlpha"/><feOffset/><feGaussianBlur stdDeviation="3"/><feColorMatrix values="0 0 0 0 0 0 0 0 0 0.145098 0 0 0 0 0.180392 0 0 0 0.181839 0"/><feBlend in2="BackgroundImageFix" result="effect1_dropShadow_70_59"/><feBlend in="SourceGraphic" in2="effect1_dropShadow_70_59" result="shape"/></filter></defs></svg>